<svg width="112" height="112" viewBox="0 0 112 112" fill="none" xmlns="http://www.w3.org/2000/svg">
<g clip-path="url(#clip0_25_31)">
<path d="M56.0003 0H55.6317C47.885 0 40.5163 1.62867 33.8523 4.564L34.1977 4.42867C27.5703 7.27743 21.541 11.3529 16.427 16.4407C11.427 21.4531 7.40424 27.3527 4.56433 33.838L4.41966 34.2067C1.47931 40.962 -0.0255918 48.2545 0.000329244 55.622V56.0233V56.0047V56.3733C0.000329244 64.12 1.629 71.4887 4.56433 78.1527L4.429 77.8073C7.27618 84.4319 11.3484 90.4594 16.4317 95.5733C21.4458 100.573 27.347 104.596 33.8337 107.436L34.2023 107.581C40.521 110.381 47.8897 112.009 55.6363 112.009H56.0237H56.005H56.3737C64.1203 112.009 71.489 110.381 78.153 107.445L77.8077 107.581C84.4359 104.733 90.4668 100.659 95.583 95.5733C100.583 90.5609 104.606 84.6613 107.446 78.176L107.59 77.8073C110.39 71.4887 112.019 64.1247 112.019 56.3733V55.636C112.019 47.8893 110.39 40.5207 107.455 33.8567L107.59 34.202C104.74 27.5792 100.667 21.5535 95.583 16.4407C90.5706 11.4407 84.6709 7.41791 78.1857 4.578L77.817 4.43333C71.4983 1.63333 64.125 0 56.3737 0H55.9863H56.0003ZM58.987 106.353V96.614L83.221 84.3267C83.5056 84.1869 83.7522 83.9804 83.9397 83.7247L83.9443 83.72C84.1247 83.4578 84.2207 83.1469 84.2197 82.8287V82.7773V77.2473C85.2697 76.8647 86.1423 76.1927 86.7537 75.3247L86.763 75.306C87.3837 74.4707 87.7617 73.4207 87.7617 72.282V71.7313C87.6479 70.3981 87.0385 69.1559 86.0537 68.25L86.049 68.2453C85.1025 67.3527 83.85 66.8567 82.549 66.8593H82.4463H82.3577C80.9203 66.8593 79.6183 67.452 78.6897 68.4087C77.733 69.342 77.1403 70.6393 77.1403 72.0813V72.1793V72.1747V72.45C77.1497 72.59 77.1917 72.716 77.2523 72.828V72.8233C77.313 73.8593 77.7003 74.7973 78.3117 75.544L78.307 75.5347C78.9277 76.2953 79.7257 76.8833 80.645 77.2333L80.6823 77.2473V81.676L58.987 92.7453V83.6827L68.5023 79.254C68.7984 79.1054 69.0617 78.8991 69.277 78.6473L69.2817 78.6427C69.4958 78.3896 69.6132 78.0688 69.613 77.7373V62.65L87.3137 52.6913C87.5996 52.549 87.832 52.3183 87.9763 52.0333L87.981 52.024C88.1244 51.7521 88.1997 51.4494 88.2003 51.142V46.9373C89.241 46.5687 90.109 45.92 90.7343 45.0847L90.7437 45.0707C91.3643 44.2447 91.7423 43.1993 91.7423 42.0653V41.8787C91.7423 40.4413 91.1497 39.1393 90.193 38.2107C89.7272 37.7201 89.1662 37.3296 88.5443 37.0632C87.9225 36.7969 87.2528 36.6601 86.5763 36.6613H85.867C84.5851 36.7872 83.3998 37.3982 82.5537 38.3693L82.549 38.374C81.6903 39.33 81.2164 40.5703 81.219 41.8553V41.972V41.9673V42.0607C81.219 43.1947 81.5923 44.2353 82.227 45.0753L82.2177 45.0613C82.857 45.9107 83.7203 46.5593 84.7283 46.914L84.7657 46.928V50.1387L66.9483 60.0973C66.7131 60.2602 66.5092 60.4641 66.3463 60.6993L66.3417 60.7087C66.1749 60.9641 66.0857 61.2623 66.085 61.5673V61.6467V61.642V76.5753L58.9917 79.8933V47.3573L73.925 40.0493C74.2197 39.9009 74.467 39.673 74.639 39.3913L74.6437 39.382C74.8191 39.121 74.9148 38.8145 74.919 38.5V32.8533C75.9597 32.4847 76.8277 31.836 77.453 31.0007L77.4623 30.9867C78.083 30.1607 78.461 29.1153 78.461 27.9813V27.8833V27.6033C78.4614 27.5537 78.4517 27.5045 78.4325 27.4588C78.4132 27.413 78.3848 27.3717 78.349 27.3373C78.2132 26.0464 77.6049 24.8514 76.641 23.982L76.6363 23.9773C75.7118 23.0857 74.4767 22.5887 73.1923 22.5913H72.595C71.2936 22.7334 70.0945 23.3638 69.2397 24.3553L69.235 24.36C68.3433 25.3145 67.8478 26.5724 67.849 27.8787V28.4527C67.9983 29.512 68.409 30.45 69.0203 31.234L69.011 31.22C69.6037 31.9993 70.4157 32.578 71.3537 32.872L71.3863 32.8813V37.4173L58.9917 43.5027V24.6773C60.0417 24.2947 60.9143 23.6227 61.5257 22.7547L61.535 22.736C62.1557 21.9007 62.5337 20.8507 62.5337 19.712V19.6C62.5337 18.1627 61.941 16.8607 60.9843 15.932C60.5072 15.4409 59.9362 15.0506 59.3053 14.7845C58.6744 14.5183 57.9964 14.3817 57.3117 14.3827H57.2137H57.125C55.6877 14.3827 54.3857 14.9753 53.457 15.932C52.5003 16.8653 51.9077 18.1627 51.9077 19.6047V19.7027V20.2487C52.0477 21.2893 52.463 22.2133 53.0743 22.9693L53.065 22.96C53.6857 23.7207 54.4837 24.3087 55.403 24.6587L55.4403 24.6727V55.328L46.695 50.68V36.7033C46.6946 36.4379 46.6168 36.1784 46.471 35.9567L46.4757 35.9613C46.3444 35.7636 46.1961 35.5778 46.0323 35.406L39.9377 30.7487C40.0847 30.4588 40.1945 30.1515 40.2643 29.834L40.269 29.806C40.339 29.4933 40.381 29.1387 40.381 28.77V28.658C40.381 27.2207 39.7883 25.9187 38.8317 24.99C38.3544 24.5007 37.7839 24.1119 37.1539 23.8466C36.5239 23.5813 35.8472 23.4449 35.1637 23.4453H35.0937H35.005C33.5677 23.4453 32.2657 24.038 31.337 24.9947C30.3803 25.928 29.7877 27.2253 29.7877 28.6673V28.7653V28.8727C29.7877 30.296 30.371 31.584 31.309 32.5127C32.2423 33.4693 33.5397 34.062 34.9817 34.062H35.0797H35.075H35.145C35.6028 34.0632 36.0574 33.9858 36.489 33.8333L36.461 33.8427C36.9743 33.6513 37.3943 33.4647 37.8003 33.2593L37.7303 33.292L43.153 37.6087V51.772C43.1516 52.0723 43.2501 52.3645 43.433 52.6027L43.4283 52.598C43.613 52.8527 43.8563 53.0592 44.1377 53.2L44.147 53.2047L55.4357 59.178V70.4667L36.5123 61.7213L36.8437 54.8613V54.7493C36.8451 54.449 36.7466 54.1568 36.5637 53.9187L36.5683 53.9233C36.3836 53.6686 36.1403 53.4622 35.859 53.3213L35.8497 53.3167L27.2117 48.79C27.2861 48.5529 27.3239 48.3058 27.3237 48.0573V47.124C27.1879 45.8331 26.5795 44.638 25.6157 43.7687L25.611 43.764C24.6628 42.867 23.4069 42.3676 22.1017 42.3687H22.0177H21.9897C20.5663 42.3687 19.283 42.9613 18.373 43.918C17.4023 44.8513 16.7957 46.1627 16.7957 47.614V47.684V47.6793V48.23C16.931 49.56 17.561 50.722 18.5037 51.5433L18.5083 51.548C19.409 52.374 20.613 52.878 21.9383 52.878H22.5497C23.0764 52.8098 23.5933 52.6798 24.0897 52.4907L24.043 52.5047C24.5283 52.318 24.953 52.0753 25.3263 51.7767L25.317 51.786L33.283 55.8927L33.0637 62.7527V62.79C33.0637 63.14 33.143 63.4667 33.2877 63.7607L33.283 63.7467C33.4483 64.0539 33.7206 64.2897 34.0483 64.4093L34.0577 64.414L55.417 74.3727V106.428C54.4588 106.428 53.5177 106.391 52.5937 106.316L49.7703 106.097L50.1017 85.7313C50.0974 85.4133 50 85.1034 49.8217 84.84L49.8263 84.8447C49.6311 84.5429 49.3451 84.3109 49.0097 84.182L49.0003 84.1773L35.607 77.98V77.3967C35.607 75.9733 35.0143 74.69 34.0577 73.78C33.5805 73.2888 33.0095 72.8986 32.3786 72.6325C31.7477 72.3663 31.0697 72.2297 30.385 72.2307H30.287H30.2917H29.7597C28.4778 72.3566 27.2925 72.9676 26.4463 73.9387L26.4417 73.9433C25.5829 74.8993 25.1091 76.1396 25.1117 77.4247V77.5413V77.5693C25.1117 78.9927 25.7043 80.276 26.661 81.186C27.571 82.1427 28.8543 82.7353 30.2777 82.7353H30.4597C31.1877 82.7353 31.883 82.5813 32.5083 82.2967L32.4757 82.3107C33.129 81.998 33.6937 81.6247 34.1977 81.1813L34.1883 81.1907L46.583 86.8373V105.541C40.7548 104.456 35.1688 102.333 30.091 99.274L30.315 99.4C25.414 96.4925 21.039 92.7785 17.3743 88.4147L17.309 88.3353C13.6988 83.9909 10.8235 79.0853 8.797 73.8127L8.67566 73.458C6.57039 67.9473 5.50091 62.0951 5.521 56.196V55.678C5.521 48.706 6.98633 42.0747 9.62766 36.0733L9.50633 36.386C12.0757 30.3983 15.7557 24.9512 20.3517 20.3327C24.8818 15.8209 30.2136 12.1936 36.0737 9.63667L36.405 9.506C42.4968 6.84952 49.0745 5.48916 55.7203 5.51133H56.005H55.991H56.2897C63.2617 5.51133 69.893 6.97667 75.8943 9.618L75.5817 9.49667C81.5669 12.0623 87.0135 15.7356 91.635 20.3233C96.155 24.8506 99.789 30.1828 102.35 36.0453L102.48 36.3767C105 42.0607 106.466 48.692 106.466 55.6687V55.9813V55.9673V56.266C106.466 63.0047 105.103 69.426 102.639 75.2687L102.76 74.9467C100.362 80.7667 96.922 86.1008 92.6103 90.6873L92.6337 90.6593C88.3995 95.139 83.383 98.8081 77.831 101.486L77.5277 101.617C72.1143 104.267 65.7863 105.966 59.1037 106.325L58.9823 106.33L58.987 106.353Z" fill="white"/>
</g>
<defs>
<clipPath id="clip0_25_31">
<rect width="112" height="112" fill="white"/>
</clipPath>
</defs>
</svg>
